# xmcd
#
# Track frame offsets: 
#        182
#        13655
#        29552
#        42012
#        55850
#        69045
#        81395
#        95790
#        108082
#        120430
#
# Disc length: 1789 seconds
#
# Revision: 1
# Processed by: cddbd v1.5PL3 Copyright (c) Steve Scherf et al.
# Submitted via: ExactAudioCopy v0.95a3
#
DISCID=7706fb0a
DTITLE=Donna Ulisse - Trouble At The Door
DYEAR=1991
DGENRE=Country
TTITLE0=Trouble At The Door
TTITLE1=Fire In An Old Flame's Eyes
TTITLE2=Guess Who's Back In Town
TTITLE3=Fall Apart With You
TTITLE4=My Broken Heart's Breaking All Over Again
TTITLE5=When Was The Last Time
TTITLE6=You Always Take Her Memory Out On Me
TTITLE7=Out Of Sight, Out Of Mind
TTITLE8=Things Are Mostly Fine
TTITLE9=Legend In My Heart
EXTD=
EXTT0=
EXTT1=
EXTT2=
EXTT3=
EXTT4=
EXTT5=
EXTT6=
EXTT7=
EXTT8=
EXTT9=
PLAYORDER=
